<?xml version="1.0" encoding="UTF-8"?>
<svg id="Capa_1" data-name="Capa 1" xmlns="http://www.w3.org/2000/svg" xmlns:xlink="http://www.w3.org/1999/xlink" viewBox="0 0 519.89 224.95">
  <defs>
    <style>
      .cls-1 {
        fill: #4037ff;
      }

      .cls-2 {
        fill: url(#Degradado_sin_nombre_32);
      }

      .cls-3 {
        fill: #0f1020;
      }
    </style>
    <linearGradient id="Degradado_sin_nombre_32" data-name="Degradado sin nombre 32" x1="28.43" y1="464.41" x2="28.43" y2="625.36" gradientTransform="translate(-294.46 -287.18) rotate(-40.98)" gradientUnits="userSpaceOnUse">
      <stop offset="0" stop-color="#d313c2"/>
      <stop offset=".04" stop-color="#c315bf"/>
      <stop offset=".12" stop-color="#9b1ab8"/>
      <stop offset=".22" stop-color="#5b22ad"/>
      <stop offset=".22" stop-color="#5a23ad"/>
      <stop offset=".42" stop-color="#4731e7"/>
      <stop offset=".49" stop-color="#4037ff"/>
      <stop offset=".82" stop-color="#028e8a"/>
      <stop offset="1" stop-color="#0f1020"/>
    </linearGradient>
  </defs>
  <g>
    <g>
      <path class="cls-1" d="M82.59,124.72c0,.79.64,1.43,1.43,1.43.38,0,.74-.15,1.01-.42.27-.27.42-.63.42-1.01v-4.3h4.3c.38,0,.74-.15,1.01-.42.27-.27.42-.63.42-1.01,0-.79-.64-1.43-1.43-1.43h-4.3v-4.3c0-.79-.64-1.43-1.43-1.43s-1.43.64-1.43,1.43v4.3h-4.3c-.79,0-1.43.64-1.43,1.43s.64,1.43,1.43,1.43h4.3v4.3Z"/>
      <path class="cls-1" d="M55.83,78.45l16.1,33.64c.3.64.96,1.05,1.66,1.05h5.72c.49,0,.96-.2,1.31-.54.15-.15.27-.32.36-.51l16.1-33.65c1-2.09.87-4.52-.35-6.5l-6.45-10.41-.38-.61.6-.4c.11-.07.2-.15.29-.24.13-.13.24-.27.32-.42l4.76-8.74c.21-.39.28-.82.19-1.26l-.02-.08v-20.68c0-.85-.07-.92-1.87-1.78l-.29-.14-4.36-2.1c-4.12-1.98-8.72-3.03-13.3-3.03s-9.17,1.05-13.3,3.03l-4.36,2.1c-.23.13-.48.27-.72.4-1.25.68-1.45.84-1.45,1.52v21.13s.02.2.02.2c.01.13.05.29.11.46h0s4.85,8.96,4.85,8.96c.19.35.48.62.84.79l.76.35-.44.71-6.34,10.24c-1.22,1.98-1.35,4.4-.35,6.5ZM60.08,48.39v-3.16h10.79c.49,0,.96-.19,1.31-.54.41-.41.6-.97.52-1.55-.11-.9-.99-1.6-2-1.6h-10.63v-9.83s0-.43,0-.43l.38-.21c4.8-2.7,10.25-4.12,15.75-4.12,5.51,0,10.95,1.43,15.75,4.12l.38.21v16.38s0,.74,0,.74h-32.26ZM61.94,53.18l-.6-1.1h29.79l-.6,1.1-1.93,3.56-.21.39h-24.31l-.21-.39-1.93-3.56ZM59.32,73.9l7.88-12.72.22-.35h17.65s.41,0,.41,0l.22.35,7.88,12.72c.56.9.62,2,.16,2.96l-14.03,29.32-1.41,2.95v-3.27s0-20.41,0-20.41v-.43l.37-.21c.32-.18.6-.41.86-.66.82-.82,1.27-1.91,1.27-3.07,0-2.39-1.95-4.34-4.34-4.34-1.11,0-2.22.47-3.04,1.3-.82.82-1.3,1.93-1.3,3.04,0,1.51.82,2.94,2.13,3.72l.36.22v20.84s0,3.27,0,3.27l-1.41-2.95-14.03-29.33c-.46-.95-.4-2.06.16-2.96Z"/>
    </g>
    <path class="cls-2" d="M30.09,144.58c-.61,0-1.19-.31-1.52-.87-5.02-8.51-7.68-18.25-7.68-28.17v-38.18c0-.98.79-1.77,1.77-1.77s1.77.79,1.77,1.77v38.18c0,9.28,2.49,18.4,7.19,26.37.5.84.22,1.93-.62,2.42-.28.17-.59.25-.9.25ZM102.8,164.47c.86-.46,1.18-1.54.71-2.4-.46-.86-1.54-1.18-2.4-.71-7.53,4.07-16.06,6.23-24.66,6.23-14.52,0-28.5-6.16-38.35-16.9-.66-.72-1.78-.77-2.5-.11-.72.66-.77,1.78-.11,2.5,10.52,11.47,25.44,18.05,40.96,18.05,9.19,0,18.3-2.3,26.34-6.65ZM113.97,156.5c11.47-10.52,18.05-25.44,18.05-40.96,0-.98-.79-1.77-1.77-1.77s-1.77.79-1.77,1.77c0,14.52-6.16,28.5-16.9,38.35-.72.66-.77,1.78-.11,2.5.35.38.83.57,1.3.57.43,0,.86-.15,1.19-.46ZM132.02,100.56v-23.2c0-18.66-9.32-35.98-24.92-46.33-.81-.54-1.91-.32-2.45.5-.54.81-.32,1.91.5,2.45,14.61,9.7,23.34,25.92,23.34,43.38v23.2c0,.98.79,1.77,1.77,1.77s1.77-.79,1.77-1.77ZM25.59,66.38c2.47-11.44,8.85-21.85,17.98-29.31.76-.62.87-1.73.25-2.49-.62-.76-1.73-.87-2.49-.25-9.75,7.97-16.57,19.09-19.2,31.3-.21.95.4,1.9,1.36,2.1.13.03.25.04.37.04.82,0,1.55-.57,1.73-1.4ZM31.12,127.04c.96-.2,1.56-1.14,1.36-2.1-.66-3.07-.99-6.23-.99-9.4v-14c0-.98-.79-1.77-1.77-1.77s-1.77.79-1.77,1.77v14c0,3.41.36,6.82,1.07,10.13.18.83.91,1.4,1.73,1.4.12,0,.25-.01.37-.04ZM55.73,157.46c.47-.86.15-1.93-.71-2.4-8.29-4.52-15.1-11.69-19.16-20.2-.42-.88-1.48-1.25-2.36-.83-.88.42-1.25,1.48-.83,2.36,4.38,9.18,11.72,16.91,20.66,21.78.27.15.56.22.84.22.63,0,1.23-.33,1.55-.92ZM78.22,162.27c0-.98-.79-1.77-1.77-1.77-4.04,0-8.04-.54-11.9-1.6-.94-.26-1.92.29-2.17,1.24-.26.94.29,1.92,1.24,2.17,4.17,1.15,8.49,1.73,12.84,1.73.98,0,1.77-.79,1.77-1.77ZM85.35,163.22c16.08-2.99,29.9-14.3,36.06-29.51.37-.91-.07-1.94-.97-2.3-.9-.37-1.94.07-2.3.97-5.72,14.1-18.53,24.58-33.43,27.36-.96.18-1.59,1.1-1.41,2.06.16.85.9,1.44,1.74,1.44.11,0,.22,0,.33-.03ZM124.27,123.69c.45-2.67.68-5.41.68-8.14v-38.18c0-5.61-.95-11.11-2.83-16.34-.33-.92-1.34-1.4-2.26-1.07-.92.33-1.4,1.34-1.07,2.26,1.74,4.85,2.63,9.95,2.63,15.15v38.18c0,2.53-.21,5.07-.63,7.55-.16.96.48,1.88,1.45,2.04.1.02.2.02.3.02.85,0,1.6-.61,1.74-1.47ZM43.18,47.16c3.3-4.27,6.19-7.37,10.67-9.05.91-.34,1.56-1.15,1.35-2.11-.21-.95-1.15-1.54-2.11-1.35-5.13,1.03-10.05,6.25-12.54,10.13-.53.82-.6,1.84.12,2.5.34.31.76.46,1.19.46.48,0,.99-.17,1.31-.58ZM118.68,58.59c.24,0,.47-.07.66-.2.35-.24.54-.67.58-1.09.09-.91-.18-1.83-.43-2.69-2-6.87-10.37-15.86-17.57-18.87-.9-.38-1.9.4-2.11,1.35-.21.95.35,2.07,1.24,2.46,2.76,1.22,5.19,3.27,7.34,5.34,2.46,2.37,4.71,5.03,6.48,7.96.57.95,1.09,1.93,1.52,2.95.48,1.15.66,2.83,2.29,2.79ZM31.5,85.44v-8.08c0-7.14,1.63-13.98,4.86-20.31.44-.87.1-1.94-.77-2.38-.87-.44-1.94-.1-2.38.77-3.48,6.84-5.24,14.21-5.24,21.92v8.08c0,.98.79,1.77,1.77,1.77s1.77-.79,1.77-1.77ZM40.01,67.02c2.26-7.94,7.17-15.06,13.84-20.03.78-.58.94-1.69.36-2.48-.58-.78-1.69-.94-2.47-.36-7.28,5.44-12.66,13.21-15.12,21.9-.27.94.28,1.92,1.22,2.18.16.05.32.07.48.07.77,0,1.48-.51,1.7-1.29ZM38.57,110.34v-32.97c0-.98-.79-1.77-1.77-1.77s-1.77.79-1.77,1.77v32.97c0,.98.79,1.77,1.77,1.77s1.77-.79,1.77-1.77ZM45.83,140.77c.78-.59.94-1.7.35-2.48-4.34-5.76-6.93-12.59-7.49-19.75-.08-.97-.94-1.7-1.9-1.62-.97.08-1.7.93-1.62,1.9.62,7.84,3.45,15.31,8.19,21.6.35.46.88.7,1.41.7.37,0,.74-.12,1.06-.36ZM93.88,153.12c.89-.41,1.27-1.46.86-2.35-.41-.89-1.47-1.27-2.35-.86-5.01,2.33-10.37,3.51-15.93,3.51-9.33,0-18.3-3.43-25.25-9.67-.73-.65-1.85-.59-2.5.14-.65.73-.59,1.85.14,2.5,7.61,6.82,17.41,10.57,27.61,10.57,6.08,0,11.94-1.29,17.42-3.85ZM102.98,147.34c9.47-7.91,14.9-19.5,14.9-31.79v-7.73c0-.98-.79-1.77-1.77-1.77s-1.77.79-1.77,1.77v7.73c0,11.24-4.97,21.84-13.63,29.08-.75.63-.85,1.74-.22,2.49.35.42.85.63,1.36.63.4,0,.8-.13,1.13-.41ZM117.87,94.81v-17.45c0-11.38-4.77-22.38-13.09-30.19-.71-.67-1.83-.63-2.5.08-.67.71-.63,1.83.08,2.5,7.61,7.14,11.97,17.21,11.97,27.61v17.45c0,.98.79,1.77,1.77,1.77s1.77-.79,1.77-1.77ZM45.37,71.42c.24-.21.42-.48.52-.8,1.44-4.51,3.67-8.66,6.65-12.33.62-.76.5-1.87-.26-2.49-.76-.62-1.87-.5-2.49.26-3.25,4.01-5.7,8.55-7.27,13.48-.3.93.22,1.93,1.15,2.22.61.19,1.25.04,1.7-.35ZM46.1,127.52c.93-.31,1.43-1.31,1.12-2.24-1.05-3.13-1.58-6.41-1.58-9.73v-38.18c0-.98-.79-1.77-1.77-1.77s-1.77.79-1.77,1.77v38.18c0,3.71.59,7.36,1.76,10.85.25.74.94,1.21,1.68,1.21.19,0,.37-.03.56-.09ZM98.17,142.14c.76-.62.87-1.73.25-2.49-.62-.76-1.73-.87-2.49-.25-5.48,4.48-12.4,6.95-19.47,6.95-10.32,0-19.91-5.15-25.65-13.76-.54-.81-1.64-1.03-2.45-.49-.81.54-1.03,1.64-.49,2.45,6.4,9.6,17.09,15.34,28.6,15.34,7.89,0,15.6-2.75,21.71-7.75ZM105.05,134.55c3.76-5.64,5.75-12.21,5.75-19.01v-38.18c0-12.59-5.79-18.31-9.09-23.69-.51-.83-1.6-1.1-2.43-.58-.83.51-1.09,1.6-.58,2.43,2.95,4.82,8.56,10.55,8.56,21.84v38.18c0,6.09-1.78,11.99-5.16,17.04-.54.81-.32,1.91.49,2.45.3.2.64.3.98.3.57,0,1.13-.28,1.47-.79ZM60.53,124.99c.88-.42,1.26-1.47.84-2.35-1.05-2.23-1.58-4.61-1.58-7.09v-22.58c0-.98-.79-1.77-1.77-1.77s-1.77.79-1.77,1.77v22.58c0,3,.65,5.9,1.92,8.6.3.64.94,1.01,1.6,1.01.25,0,.51-.05.75-.17ZM92.77,127.45c.58-.79.4-1.9-.38-2.47-.79-.58-1.89-.41-2.47.38-3.14,4.29-8.17,6.85-13.46,6.85-4.79,0-9.36-2.07-12.53-5.69-.64-.73-1.76-.81-2.5-.16-.73.64-.81,1.76-.16,2.5,3.84,4.38,9.38,6.9,15.19,6.9,6.41,0,12.51-3.1,16.31-8.3ZM95.73,121.59c.61-1.95.92-3.98.92-6.04v-23.47c0-.98-.79-1.77-1.77-1.77s-1.77.79-1.77,1.77v23.47c0,1.7-.26,3.37-.76,4.98-.29.93.23,1.92,1.16,2.22.18.06.35.08.53.08.75,0,1.45-.48,1.69-1.24ZM71,127.08c.6,0,1.19-.31,1.52-.86.5-.84.22-1.92-.62-2.42-2.89-1.72-4.69-4.88-4.69-8.25v-5.14c0-.98-.79-1.77-1.77-1.77s-1.77.79-1.77,1.77v5.14c0,4.6,2.46,8.93,6.42,11.28.28.17.6.25.9.25ZM101.95,75.54c.97-.14,1.64-1.03,1.5-2-.77-5.43-3.36-10.25-6.81-14.14,0,0-1.9-2.19-3.19-.78s.34,2.66.34,2.66c2.87,3.34,5.5,8.15,6.15,12.75.12.88.88,1.52,1.75,1.52.08,0,.17,0,.25-.02ZM52.72,100.56v-23.2c0-5.83,2.14-11.44,6.03-15.79.65-.73.59-1.85-.14-2.5-.73-.65-1.85-.59-2.5.14-4.47,5-6.93,11.45-6.93,18.15v23.2c0,.98.79,1.77,1.77,1.77s1.77-.79,1.77-1.77ZM73.6,140.95c.18-.96-.46-1.88-1.42-2.06-11.27-2.06-19.45-11.88-19.45-23.35v-8.7c0-.98-.79-1.77-1.77-1.77s-1.77.79-1.77,1.77v8.7c0,13.18,9.4,24.46,22.36,26.83.11.02.21.03.32.03.84,0,1.58-.6,1.74-1.45ZM78.68,142.73c14.05-1.14,25.05-13.08,25.05-27.18,0-.98-.79-1.77-1.77-1.77s-1.77.79-1.77,1.77c0,12.27-9.57,22.67-21.8,23.66-.97.08-1.7.93-1.62,1.91.07.93.85,1.63,1.76,1.63.05,0,.1,0,.15,0ZM103.73,110.34v-29.17c0-.98-.79-1.77-1.77-1.77s-1.77.79-1.77,1.77v29.17c0,.98.79,1.77,1.77,1.77s1.77-.79,1.77-1.77Z"/>
  </g>
  <g>
    <path class="cls-1" d="M150.41,34.12h11.3v57.71h-11.3v-57.71ZM176.54,63.21c-1.5-1.55-3.47-2.32-5.93-2.32-1.76,0-3.33.36-4.69,1.08-1.36.72-2.4,1.74-3.13,3.05-.72,1.31-1.08,2.82-1.08,4.53l-4.97-1.52c.64-3.85,1.76-7.12,3.37-9.82,1.6-2.7,3.62-4.74,6.05-6.13,2.43-1.39,5.14-2.08,8.14-2.08s5.85.64,8.26,1.92,4.26,3.11,5.57,5.49c1.31,2.38,1.96,5.12,1.96,8.22v26.21h-11.3v-22.44c0-2.56-.75-4.62-2.24-6.17Z"/>
    <path class="cls-1" d="M205.44,90.87c-2.32-1.28-4.12-3.1-5.37-5.45-1.26-2.35-1.88-5.05-1.88-8.1v-26.37h11.3v23c0,2.4.71,4.33,2.12,5.77,1.42,1.44,3.27,2.16,5.57,2.16,1.66,0,3.1-.33,4.33-1,1.23-.67,2.19-1.62,2.89-2.85.69-1.23,1.04-2.65,1.04-4.25l4.97,1.44c-.64,3.74-1.74,6.92-3.29,9.54-1.55,2.62-3.49,4.61-5.81,5.97-2.32,1.36-4.96,2.04-7.9,2.04s-5.65-.64-7.98-1.92ZM225.44,50.95h11.3v40.88h-11.3v-40.88Z"/>
    <path class="cls-1" d="M254.57,89.99c-3.34-1.87-5.97-4.43-7.9-7.69-1.92-3.26-2.89-6.89-2.89-10.9s.96-7.64,2.89-10.9c1.92-3.26,4.56-5.82,7.9-7.69,3.34-1.87,7.09-2.81,11.26-2.81s7.78.94,11.14,2.81c3.37,1.87,6.01,4.45,7.94,7.73,1.92,3.29,2.88,6.96,2.88,11.02,0,1.44-.08,2.65-.24,3.61h-33.91v-7.78h24.85l-2.32,4.01v-.64c0-2.14-.46-4.03-1.36-5.69-.91-1.66-2.15-2.94-3.73-3.85-1.58-.91-3.33-1.36-5.25-1.36s-3.77.48-5.37,1.44-2.85,2.32-3.73,4.09-1.32,3.77-1.32,6.01.45,4.32,1.36,6.05c.91,1.74,2.17,3.09,3.77,4.05,1.6.96,3.42,1.44,5.45,1.44s3.86-.41,5.49-1.24c1.63-.83,2.79-1.88,3.49-3.17h12.02c-1.44,4.33-4.08,7.79-7.9,10.38-3.82,2.59-8.24,3.89-13.27,3.89-4.17,0-7.92-.94-11.26-2.81Z"/>
    <path class="cls-1" d="M294.61,34.12h11.3v52.5l-5.05-5.13h11.78v10.34h-18.04v-57.71Z"/>
    <path class="cls-1" d="M318.33,34.12h11.3v52.5l-5.05-5.13h11.78v10.34h-18.04v-57.71Z"/>
    <path class="cls-1" d="M347.07,91.03c-2.16-1.17-3.89-2.78-5.17-4.81-1.28-2.03-1.92-4.3-1.92-6.81s.64-4.78,1.92-6.81c1.28-2.03,3.01-3.62,5.17-4.77,2.16-1.15,4.61-1.72,7.33-1.72h11.46v8.34h-8.58c-1.07,0-2.03.2-2.89.6-.86.4-1.54.98-2.04,1.72-.51.75-.76,1.55-.76,2.4,0,.96.25,1.8.76,2.52.51.72,1.19,1.3,2.04,1.72.85.43,1.82.64,2.89.64,1.44,0,2.71-.21,3.81-.64,1.09-.43,1.94-1.04,2.53-1.84.59-.8.88-1.68.88-2.65l4.49.32c0,2.56-.63,4.88-1.88,6.93-1.26,2.06-2.99,3.67-5.21,4.85-2.22,1.17-4.72,1.76-7.5,1.76s-5.17-.59-7.33-1.76ZM365.95,85.9l-1.44-2v-24.53l2,2h-23.57v-10.42h32.86v32.38l-1.52-1.84h6.17v10.34h-14.51v-5.93Z"/>
    <path class="cls-1" d="M158.79,162.13c-3.34-1.87-5.97-4.43-7.9-7.69-1.92-3.26-2.89-6.89-2.89-10.9s.96-7.64,2.89-10.9c1.92-3.26,4.56-5.82,7.9-7.69,3.34-1.87,7.09-2.81,11.26-2.81,3.63,0,6.97.74,10.02,2.2,3.05,1.47,5.57,3.5,7.58,6.09,2,2.59,3.33,5.54,3.97,8.86h-12.02c-.8-1.87-2.04-3.38-3.73-4.53-1.68-1.15-3.62-1.72-5.81-1.72-1.98,0-3.75.45-5.33,1.36-1.58.91-2.82,2.16-3.73,3.77-.91,1.6-1.36,3.39-1.36,5.37s.45,3.77,1.36,5.37c.91,1.6,2.15,2.86,3.73,3.77,1.58.91,3.35,1.36,5.33,1.36,2.19,0,4.13-.57,5.81-1.72,1.68-1.15,2.93-2.66,3.73-4.53h12.02c-.64,3.31-1.96,6.27-3.97,8.86-2,2.59-4.53,4.62-7.58,6.09-3.05,1.47-6.39,2.2-10.02,2.2-4.17,0-7.92-.94-11.26-2.81Z"/>
    <path class="cls-1" d="M198.42,123.09h11.3v40.88h-11.3v-40.88ZM208.08,131.27c1.52-2.83,3.42-5.01,5.69-6.53,2.27-1.52,4.77-2.28,7.5-2.28v11.62c-2.46,0-4.56.44-6.29,1.32-1.74.88-3.05,2.12-3.93,3.73-.88,1.6-1.32,3.47-1.32,5.61l-4.97-3.61c.69-3.74,1.8-7.03,3.33-9.86Z"/>
    <path class="cls-1" d="M234.61,162.13c-3.34-1.87-5.97-4.43-7.9-7.69-1.92-3.26-2.89-6.89-2.89-10.9s.96-7.64,2.89-10.9c1.92-3.26,4.56-5.82,7.9-7.69,3.34-1.87,7.09-2.81,11.26-2.81s7.78.94,11.14,2.81c3.37,1.87,6.01,4.45,7.94,7.73,1.92,3.29,2.88,6.96,2.88,11.02,0,1.44-.08,2.65-.24,3.61h-33.91v-7.78h24.85l-2.32,4.01v-.64c0-2.14-.46-4.03-1.36-5.69-.91-1.66-2.15-2.94-3.73-3.85-1.58-.91-3.33-1.36-5.25-1.36s-3.77.48-5.37,1.44-2.85,2.32-3.73,4.09-1.32,3.77-1.32,6.01.45,4.32,1.36,6.05c.91,1.74,2.17,3.09,3.77,4.05,1.6.96,3.42,1.44,5.45,1.44s3.86-.41,5.49-1.24c1.63-.83,2.79-1.88,3.49-3.17h12.02c-1.44,4.33-4.08,7.79-7.9,10.38-3.82,2.59-8.24,3.89-13.27,3.89-4.17,0-7.92-.94-11.26-2.81Z"/>
    <path class="cls-1" d="M278.62,163.17c-2.16-1.17-3.89-2.78-5.17-4.81-1.28-2.03-1.92-4.3-1.92-6.81s.64-4.78,1.92-6.81c1.28-2.03,3.01-3.62,5.17-4.77,2.16-1.15,4.61-1.72,7.33-1.72h11.46v8.34h-8.58c-1.07,0-2.03.2-2.89.6-.86.4-1.54.98-2.04,1.72-.51.75-.76,1.55-.76,2.4,0,.96.25,1.8.76,2.52.51.72,1.19,1.3,2.04,1.72.85.43,1.82.64,2.89.64,1.44,0,2.71-.21,3.81-.64,1.09-.43,1.94-1.04,2.53-1.84.59-.8.88-1.68.88-2.65l4.49.32c0,2.56-.63,4.88-1.88,6.93-1.26,2.06-2.99,3.67-5.21,4.85-2.22,1.17-4.72,1.76-7.5,1.76s-5.17-.59-7.33-1.76ZM297.5,158.04l-1.44-2v-24.53l2,2h-23.57v-10.42h32.86v32.38l-1.52-1.84h6.17v10.34h-14.51v-5.93Z"/>
    <path class="cls-1" d="M314.25,123.09h28.38v10.26h-28.38v-10.26ZM321.46,111.07h11.3v47.93l-5.05-5.37h14.91v10.34h-21.16v-52.9Z"/>
    <path class="cls-1" d="M350.48,115.64c-1.34-1.33-2-2.99-2-4.97s.67-3.63,2-4.97c1.34-1.33,3.02-2,5.05-2s3.7.67,5.01,2c1.31,1.34,1.96,2.99,1.96,4.97s-.65,3.63-1.96,4.97c-1.31,1.34-2.98,2-5.01,2s-3.71-.67-5.05-2ZM349.84,123.09h11.3v40.88h-11.3v-40.88Z"/>
    <path class="cls-1" d="M366.19,123.09h12.91l11.54,31.42h-3.53l11.62-31.42h12.58l-16.75,40.88h-11.62l-16.75-40.88Z"/>
    <path class="cls-1" d="M419.69,163.17c-2.16-1.17-3.89-2.78-5.17-4.81-1.28-2.03-1.92-4.3-1.92-6.81s.64-4.78,1.92-6.81c1.28-2.03,3.01-3.62,5.17-4.77,2.16-1.15,4.61-1.72,7.33-1.72h11.46v8.34h-8.58c-1.07,0-2.03.2-2.89.6-.86.4-1.54.98-2.04,1.72-.51.75-.76,1.55-.76,2.4,0,.96.25,1.8.76,2.52.51.72,1.19,1.3,2.04,1.72.85.43,1.82.64,2.89.64,1.44,0,2.71-.21,3.81-.64,1.09-.43,1.94-1.04,2.53-1.84.59-.8.88-1.68.88-2.65l4.49.32c0,2.56-.63,4.88-1.88,6.93-1.26,2.06-2.99,3.67-5.21,4.85-2.22,1.17-4.72,1.76-7.5,1.76s-5.17-.59-7.33-1.76ZM438.57,158.04l-1.44-2v-24.53l2,2h-23.57v-10.42h32.86v32.38l-1.52-1.84h6.17v10.34h-14.51v-5.93Z"/>
  </g>
  <g>
    <path class="cls-3" d="M152.29,199.67v-15.62h1.68v15.62h-1.68ZM153.41,185.57v-1.52h9.06v1.52h-9.06ZM153.41,192.4v-1.48h8.47v1.48h-8.47ZM153.41,199.67v-1.52h9.2v1.52h-9.2Z"/>
    <path class="cls-3" d="M164.83,199.67v-10.67h1.61v10.67h-1.61ZM172.19,199.67v-6.54c0-.88-.27-1.57-.79-2.09-.53-.51-1.2-.77-2-.77-.54,0-1.04.12-1.49.35-.45.23-.8.56-1.07.99-.26.42-.4.92-.4,1.5l-.73-.3c0-.82.18-1.53.54-2.13.36-.61.85-1.07,1.46-1.41.61-.33,1.31-.5,2.08-.5s1.43.17,2.03.5c.6.33,1.08.8,1.43,1.41.36.61.53,1.33.53,2.16v6.84h-1.61ZM179.52,199.67v-6.54c0-.88-.27-1.57-.79-2.09-.53-.51-1.2-.77-2-.77-.53,0-1.02.12-1.46.35-.45.23-.8.56-1.07.99-.26.42-.4.92-.4,1.5l-.95-.3c.05-.82.26-1.53.65-2.13.39-.61.89-1.07,1.52-1.41.63-.33,1.32-.5,2.08-.5s1.44.17,2.06.5c.61.33,1.1.8,1.45,1.41.36.61.53,1.33.53,2.16v6.84h-1.61Z"/>
    <path class="cls-3" d="M183.66,204.17v-15.17h1.61v2.73l-.32,2.61.32,2.61v7.22h-1.61ZM189.2,199.9c-.82,0-1.55-.17-2.2-.5-.65-.33-1.19-.79-1.6-1.37-.42-.58-.67-1.26-.76-2.03v-3.34c.09-.79.35-1.47.77-2.06.42-.58.96-1.03,1.62-1.35.66-.32,1.38-.48,2.17-.48.98,0,1.87.25,2.66.74.79.49,1.41,1.16,1.87,2s.69,1.79.69,2.85-.23,1.98-.68,2.82-1.08,1.5-1.87,1.99c-.79.49-1.68.74-2.67.74ZM188.9,198.38c.76,0,1.42-.17,2-.51.58-.34,1.03-.82,1.36-1.43s.5-1.31.5-2.1-.17-1.49-.5-2.1-.78-1.09-1.35-1.43c-.57-.34-1.22-.51-1.96-.51s-1.4.17-1.96.51-1.01.82-1.33,1.43c-.32.61-.48,1.31-.48,2.1s.16,1.49.48,2.1c.32.61.76,1.09,1.32,1.43.56.34,1.2.51,1.93.51Z"/>
    <path class="cls-3" d="M201.33,199.9c-1.04,0-1.98-.25-2.82-.75-.83-.5-1.5-1.17-1.99-2.02s-.74-1.79-.74-2.84.25-1.96.74-2.79,1.15-1.5,1.99-1.99c.83-.49,1.77-.74,2.82-.74s1.96.24,2.8.73c.84.48,1.51,1.15,2,1.99s.74,1.78.74,2.81-.25,2.01-.74,2.85-1.16,1.51-2,2.01c-.84.5-1.78.75-2.8.75ZM201.33,198.35c.74,0,1.41-.17,2-.52.59-.35,1.05-.83,1.39-1.45.33-.62.5-1.32.5-2.09s-.17-1.43-.51-2.03-.8-1.07-1.38-1.42c-.58-.35-1.25-.52-1.99-.52s-1.41.17-2,.52c-.59.35-1.05.82-1.38,1.42-.33.6-.5,1.28-.5,2.03s.17,1.49.5,2.1c.33.61.79,1.09,1.38,1.44.59.35,1.26.52,2,.52Z"/>
    <path class="cls-3" d="M211.55,199.67l-4.13-10.67h1.68l3.25,8.86-.59.02,3.2-8.88h.95l3.22,8.88-.61-.02,3.25-8.86h1.68l-4.13,10.67h-.95l-3.27-8.74h.68l-3.27,8.74h-.95Z"/>
    <path class="cls-3" d="M229.6,199.9c-1.06,0-2.01-.24-2.86-.73s-1.52-1.15-2.01-2-.74-1.8-.74-2.86.24-1.99.72-2.83c.48-.84,1.13-1.5,1.96-1.99.83-.48,1.76-.73,2.79-.73s1.85.22,2.6.66c.75.44,1.34,1.05,1.77,1.83.43.78.65,1.68.65,2.69,0,.12,0,.26-.02.42-.01.16-.04.34-.09.56h-9.24v-1.36h8.36l-.57.5c.01-.77-.12-1.44-.4-2.01s-.68-1.01-1.2-1.33-1.15-.48-1.87-.48c-.77,0-1.45.17-2.02.51s-1.03.81-1.35,1.41-.49,1.3-.49,2.1.17,1.54.51,2.16c.34.62.82,1.11,1.43,1.45.61.35,1.32.52,2.12.52.64,0,1.23-.12,1.77-.35.54-.23,1.01-.59,1.39-1.06l1.04,1.04c-.5.61-1.12,1.07-1.86,1.39-.74.32-1.54.48-2.38.48Z"/>
    <path class="cls-3" d="M236.44,199.67v-10.67h1.61v10.67h-1.61ZM238.05,193.45l-.66-.27c0-1.36.33-2.44.99-3.23.66-.79,1.56-1.18,2.71-1.18.53,0,1.01.09,1.45.28.44.19.85.49,1.23.9l-1.07,1.11c-.24-.27-.52-.47-.83-.59-.31-.12-.66-.18-1.06-.18-.82,0-1.48.27-2,.79-.51.53-.77,1.32-.77,2.36Z"/>
    <path class="cls-3" d="M254.58,193.22l-6.2-9.18h1.95l5.16,7.7h-.82l5.18-7.7h1.91l-6.25,9.18h-.93ZM254.24,199.67v-7.65h1.68v7.65h-1.68Z"/>
    <path class="cls-3" d="M268.55,199.9c-1.04,0-1.98-.25-2.82-.75-.83-.5-1.5-1.17-1.99-2.02s-.74-1.79-.74-2.84.25-1.96.74-2.79,1.15-1.5,1.99-1.99c.83-.49,1.77-.74,2.82-.74s1.96.24,2.8.73c.84.48,1.51,1.15,2,1.99s.74,1.78.74,2.81-.25,2.01-.74,2.85-1.16,1.51-2,2.01c-.84.5-1.78.75-2.8.75ZM268.55,198.35c.74,0,1.41-.17,2-.52.59-.35,1.05-.83,1.39-1.45.33-.62.5-1.32.5-2.09s-.17-1.43-.51-2.03-.8-1.07-1.38-1.42c-.58-.35-1.25-.52-1.99-.52s-1.41.17-2,.52c-.59.35-1.05.82-1.38,1.42-.33.6-.5,1.28-.5,2.03s.17,1.49.5,2.1c.33.61.79,1.09,1.38,1.44.59.35,1.26.52,2,.52Z"/>
    <path class="cls-3" d="M280.38,199.9c-.86,0-1.64-.2-2.33-.6-.69-.4-1.22-.95-1.6-1.66-.38-.7-.57-1.52-.57-2.44v-6.2h1.61v6.13c0,.65.12,1.22.35,1.7.23.48.57.86,1.01,1.14.44.27.95.41,1.52.41.89,0,1.6-.3,2.11-.89.51-.59.77-1.38.77-2.36v-6.13h1.61v6.2c0,.92-.19,1.74-.57,2.45-.38.71-.9,1.26-1.58,1.66s-1.46.59-2.35.59Z"/>
    <path class="cls-3" d="M287.38,199.67v-10.67h1.61v10.67h-1.61ZM288.99,193.45l-.66-.27c0-1.36.33-2.44.99-3.23.66-.79,1.56-1.18,2.71-1.18.53,0,1.01.09,1.45.28.44.19.85.49,1.23.9l-1.07,1.11c-.24-.27-.52-.47-.83-.59-.31-.12-.66-.18-1.06-.18-.82,0-1.48.27-2,.79-.51.53-.77,1.32-.77,2.36Z"/>
    <path class="cls-3" d="M301.14,199.67v-15.62h1.68v15.62h-1.68Z"/>
    <path class="cls-3" d="M305.96,199.67v-10.67h1.61v10.67h-1.61ZM313.75,199.67v-6.27c0-.92-.28-1.68-.84-2.26-.56-.58-1.29-.87-2.2-.87-.61,0-1.14.13-1.61.4-.47.27-.84.63-1.11,1.1s-.41,1.01-.41,1.61l-.73-.41c0-.8.19-1.52.57-2.16.38-.64.89-1.14,1.54-1.5.65-.36,1.38-.54,2.2-.54s1.54.2,2.18.59c.64.39,1.13.92,1.49,1.59.36.67.53,1.39.53,2.18v6.54h-1.61Z"/>
    <path class="cls-3" d="M317.86,199.67v-10.67h1.61v10.67h-1.61ZM325.65,199.67v-6.27c0-.92-.28-1.68-.84-2.26-.56-.58-1.29-.87-2.2-.87-.61,0-1.14.13-1.61.4-.47.27-.84.63-1.11,1.1s-.41,1.01-.41,1.61l-.73-.41c0-.8.19-1.52.57-2.16.38-.64.89-1.14,1.54-1.5.65-.36,1.38-.54,2.2-.54s1.54.2,2.18.59c.64.39,1.13.92,1.49,1.59.36.67.53,1.39.53,2.18v6.54h-1.61Z"/>
    <path class="cls-3" d="M334.68,199.9c-1.06,0-2.01-.24-2.86-.73s-1.52-1.15-2.01-2-.74-1.8-.74-2.86.24-1.99.72-2.83c.48-.84,1.13-1.5,1.96-1.99.83-.48,1.76-.73,2.79-.73s1.85.22,2.6.66c.75.44,1.34,1.05,1.77,1.83.43.78.65,1.68.65,2.69,0,.12,0,.26-.02.42-.01.16-.04.34-.09.56h-9.24v-1.36h8.36l-.57.5c.01-.77-.12-1.44-.4-2.01s-.68-1.01-1.2-1.33-1.15-.48-1.87-.48c-.77,0-1.45.17-2.02.51s-1.03.81-1.35,1.41-.49,1.3-.49,2.1.17,1.54.51,2.16c.34.62.82,1.11,1.43,1.45.61.35,1.32.52,2.12.52.64,0,1.23-.12,1.77-.35.54-.23,1.01-.59,1.39-1.06l1.04,1.04c-.5.61-1.12,1.07-1.86,1.39-.74.32-1.54.48-2.38.48Z"/>
    <path class="cls-3" d="M341.52,199.67v-10.67h1.61v10.67h-1.61ZM343.13,193.45l-.66-.27c0-1.36.33-2.44.99-3.23.66-.79,1.56-1.18,2.71-1.18.53,0,1.01.09,1.45.28.44.19.85.49,1.23.9l-1.07,1.11c-.24-.27-.52-.47-.83-.59-.31-.12-.66-.18-1.06-.18-.82,0-1.48.27-2,.79-.51.53-.77,1.32-.77,2.36Z"/>
    <path class="cls-3" d="M353.51,199.67l6.38-15.62h1.27l6.34,15.62h-1.82l-5.5-13.79h.66l-5.56,13.79h-1.77ZM356.44,195.61v-1.45h8.18v1.45h-8.18Z"/>
    <path class="cls-3" d="M369.48,199.67v-10.67h1.61v10.67h-1.61ZM371.09,193.45l-.66-.27c0-1.36.33-2.44.99-3.23.66-.79,1.56-1.18,2.71-1.18.53,0,1.01.09,1.45.28.44.19.85.49,1.23.9l-1.07,1.11c-.24-.27-.52-.47-.83-.59-.31-.12-.66-.18-1.06-.18-.82,0-1.48.27-2,.79-.51.53-.77,1.32-.77,2.36Z"/>
    <path class="cls-3" d="M376.9,190.45v-1.45h6.97v1.45h-6.97ZM379.58,199.67v-15.17h1.61v15.17h-1.61Z"/>
    <path class="cls-3" d="M386.4,186.7c-.3,0-.56-.11-.77-.34s-.32-.49-.32-.79.11-.58.32-.79c.21-.21.47-.32.77-.32.33,0,.6.11.81.32.2.21.31.48.31.79s-.1.57-.31.79c-.21.23-.47.34-.81.34ZM385.6,199.67v-10.67h1.61v10.67h-1.61Z"/>
    <path class="cls-3" d="M393.25,199.9c-.58,0-1.13-.08-1.66-.24-.53-.16-1.01-.38-1.44-.67-.43-.29-.81-.63-1.15-1.02l1.04-1.04c.42.52.9.9,1.44,1.15.54.25,1.14.37,1.81.37s1.25-.14,1.65-.41c.4-.27.6-.65.6-1.14,0-.45-.14-.81-.42-1.06-.28-.25-.65-.45-1.1-.61-.45-.16-.93-.31-1.43-.45-.5-.14-.97-.33-1.42-.55-.45-.22-.81-.52-1.1-.91-.29-.39-.43-.9-.43-1.56,0-.61.15-1.13.45-1.58.3-.45.73-.79,1.27-1.04.54-.25,1.2-.38,1.98-.38s1.53.14,2.18.43c.65.29,1.17.71,1.57,1.27l-1.04,1.04c-.3-.41-.69-.73-1.17-.95-.48-.23-1.01-.34-1.6-.34-.68,0-1.2.13-1.56.4-.36.27-.53.61-.53,1.03s.14.73.43.97c.29.23.65.42,1.1.57.45.14.92.29,1.42.43s.98.33,1.43.57c.45.23.82.55,1.1.95.28.4.42.94.42,1.62,0,.95-.34,1.71-1.03,2.28s-1.62.85-2.8.85Z"/>
    <path class="cls-3" d="M398.11,190.45v-1.45h6.97v1.45h-6.97ZM400.79,199.67v-15.17h1.61v15.17h-1.61Z"/>
    <path class="cls-3" d="M410.08,185.57v-1.52h12.7v1.52h-12.7ZM415.6,199.67v-15.19h1.68v15.19h-1.68Z"/>
    <path class="cls-3" d="M429.59,199.9c-1.04,0-1.98-.25-2.82-.75-.83-.5-1.5-1.17-1.99-2.02s-.74-1.79-.74-2.84.25-1.96.74-2.79,1.15-1.5,1.99-1.99c.83-.49,1.77-.74,2.82-.74s1.96.24,2.8.73c.84.48,1.51,1.15,2,1.99s.74,1.78.74,2.81-.25,2.01-.74,2.85-1.16,1.51-2,2.01c-.84.5-1.78.75-2.8.75ZM429.59,198.35c.74,0,1.41-.17,2-.52.59-.35,1.05-.83,1.39-1.45.33-.62.5-1.32.5-2.09s-.17-1.43-.51-2.03-.8-1.07-1.38-1.42c-.58-.35-1.25-.52-1.99-.52s-1.41.17-2,.52c-.59.35-1.05.82-1.38,1.42-.33.6-.5,1.28-.5,2.03s.17,1.49.5,2.1c.33.61.79,1.09,1.38,1.44.59.35,1.26.52,2,.52Z"/>
    <path class="cls-3" d="M441.74,199.9c-1,0-1.89-.24-2.68-.73s-1.41-1.15-1.86-1.99-.68-1.78-.68-2.83.23-2.01.68-2.85,1.08-1.51,1.87-2c.79-.49,1.68-.74,2.67-.74.79,0,1.51.16,2.17.48.66.32,1.2.77,1.62,1.35.42.58.68,1.27.77,2.06v3.34c-.09.77-.34,1.45-.76,2.03-.42.58-.95,1.04-1.61,1.37-.66.33-1.39.5-2.19.5ZM442.01,198.38c.74,0,1.39-.17,1.95-.52.56-.35,1-.83,1.31-1.43.31-.61.46-1.3.46-2.09s-.16-1.51-.48-2.11c-.32-.61-.76-1.08-1.32-1.42s-1.21-.51-1.95-.51-1.4.17-1.96.52c-.57.35-1.02.83-1.35,1.43s-.5,1.3-.5,2.09.16,1.49.49,2.1.78,1.09,1.36,1.43c.58.34,1.25.51,1.99.51ZM447.26,199.67h-1.61v-2.86l.34-2.63-.34-2.57v-8.02h1.61v16.08Z"/>
    <path class="cls-3" d="M454.62,199.9c-1,0-1.9-.25-2.7-.74-.8-.49-1.44-1.15-1.91-1.99s-.7-1.77-.7-2.82.23-2.01.7-2.85,1.1-1.51,1.9-2c.79-.49,1.69-.74,2.69-.74.82,0,1.55.16,2.19.49.64.33,1.17.78,1.58,1.36.41.58.65,1.26.73,2.03v3.34c-.09.77-.34,1.45-.74,2.04-.4.59-.92,1.05-1.56,1.37-.64.33-1.36.49-2.18.49ZM454.87,198.38c1.12,0,2.01-.37,2.68-1.11s1-1.72,1-2.93c0-.8-.15-1.51-.45-2.11-.3-.61-.73-1.08-1.29-1.42-.56-.34-1.21-.51-1.95-.51s-1.41.17-1.99.52c-.58.35-1.04.83-1.39,1.43s-.51,1.3-.51,2.09.17,1.48.51,2.09.81,1.08,1.4,1.43c.59.35,1.26.52,2,.52ZM458.46,199.67v-2.86l.32-2.63-.32-2.57v-2.61h1.61v10.67h-1.61Z"/>
    <path class="cls-3" d="M466.38,199.74l-4.7-10.74h1.77l3.77,8.95h-.66l3.95-8.95h1.79l-5.02,10.74h-.91ZM463.45,204.17l2.95-6.06.89,1.64-2.07,4.43h-1.77Z"/>
  </g>
</svg>