<?xml version="1.0" encoding="UTF-8"?>
<svg id="Capa_1" data-name="Capa 1" xmlns="http://www.w3.org/2000/svg" xmlns:xlink="http://www.w3.org/1999/xlink" viewBox="0 0 718.3 158.79">
  <defs>
    <style>
      .cls-1 {
        fill: #4037ff;
      }

      .cls-2 {
        fill: url(#Degradado_sin_nombre_32);
      }

      .cls-3 {
        fill: #0f1020;
      }
    </style>
    <linearGradient id="Degradado_sin_nombre_32" data-name="Degradado sin nombre 32" x1="-164.43" y1="399.72" x2="-164.43" y2="526.98" gradientTransform="translate(-105.35 -373.46) rotate(-40.98)" gradientUnits="userSpaceOnUse">
      <stop offset="0" stop-color="#d313c2"/>
      <stop offset=".04" stop-color="#c315bf"/>
      <stop offset=".12" stop-color="#9b1ab8"/>
      <stop offset=".22" stop-color="#5b22ad"/>
      <stop offset=".22" stop-color="#5a23ad"/>
      <stop offset=".42" stop-color="#4731e7"/>
      <stop offset=".49" stop-color="#4037ff"/>
      <stop offset=".82" stop-color="#028e8a"/>
      <stop offset="1" stop-color="#0f1020"/>
    </linearGradient>
  </defs>
  <g>
    <g>
      <path class="cls-1" d="M73.01,99.35c0,.63.51,1.13,1.13,1.13.3,0,.59-.12.8-.33.21-.21.33-.5.33-.8v-3.4h3.4c.3,0,.59-.12.8-.33.21-.21.33-.5.33-.8,0-.63-.51-1.13-1.13-1.13h-3.4v-3.4c0-.62-.51-1.13-1.13-1.13s-1.13.51-1.13,1.13v3.4h-3.4c-.62,0-1.13.51-1.13,1.13s.51,1.13,1.13,1.13h3.4v3.4Z"/>
      <path class="cls-1" d="M51.85,62.75l12.73,26.6c.24.5.76.83,1.31.83h4.52c.38,0,.76-.16,1.03-.43.12-.12.21-.25.28-.4l12.73-26.61c.79-1.66.69-3.58-.28-5.14l-5.1-8.23-.3-.49.48-.31c.08-.05.16-.12.23-.19.1-.1.19-.22.25-.34l3.76-6.91c.17-.31.22-.65.15-1v-.06s-.01-.06-.01-.06v-16.29c0-.68-.06-.73-1.48-1.41l-.23-.11-3.45-1.66c-3.26-1.57-6.9-2.4-10.51-2.4s-7.25.83-10.51,2.4l-3.45,1.66c-.18.1-.38.21-.57.32-.99.54-1.15.66-1.15,1.2v16.7s.01.15.01.15c.01.11.04.23.09.36h0s3.83,7.09,3.83,7.09c.15.27.38.49.67.63l.6.28-.35.56-5.01,8.09c-.97,1.56-1.07,3.48-.28,5.14ZM55.21,38.99v-2.5h8.54c.39,0,.76-.15,1.03-.43.32-.32.47-.77.42-1.22-.09-.71-.78-1.27-1.58-1.27h-8.4v-7.78s0-.34,0-.34l.3-.17c3.8-2.13,8.1-3.26,12.46-3.26,4.35,0,8.66,1.13,12.46,3.26l.3.17v12.95s0,.59,0,.59h-25.51ZM56.68,42.78l-.47-.87h23.56l-.47.87-1.53,2.81-.17.31h-19.22l-.17-.31-1.53-2.81ZM54.61,59.16l6.23-10.06.17-.28h13.96s.33,0,.33,0l.17.28,6.23,10.06c.44.71.49,1.58.13,2.34l-11.1,23.19-1.11,2.33v-2.58s0-16.14,0-16.14v-.34l.29-.17c.25-.15.48-.32.68-.52.65-.65,1.01-1.51,1.01-2.43,0-1.89-1.54-3.43-3.43-3.43-.88,0-1.75.37-2.41,1.03-.65.65-1.03,1.53-1.03,2.41,0,1.2.65,2.32,1.69,2.94l.29.17v16.48s0,2.58,0,2.58l-1.11-2.33-11.1-23.19c-.36-.75-.31-1.63.13-2.34Z"/>
    </g>
    <path class="cls-2" d="M31.49,115.05c-.48,0-.94-.25-1.21-.69-3.97-6.73-6.07-14.43-6.07-22.27v-30.19c0-.77.63-1.4,1.4-1.4s1.4.63,1.4,1.4v30.19c0,7.34,1.97,14.55,5.68,20.85.39.66.17,1.52-.49,1.92-.22.13-.47.19-.71.19ZM88.99,130.77c.68-.37.93-1.22.57-1.89-.37-.68-1.21-.93-1.9-.57-5.96,3.22-12.7,4.92-19.5,4.92-11.48,0-22.54-4.87-30.32-13.36-.52-.57-1.41-.61-1.98-.09-.57.52-.61,1.41-.09,1.98,8.32,9.07,20.12,14.27,32.38,14.27,7.26,0,14.47-1.82,20.83-5.26ZM97.82,124.48c9.07-8.32,14.27-20.12,14.27-32.38,0-.77-.63-1.4-1.4-1.4s-1.4.63-1.4,1.4c0,11.48-4.87,22.54-13.36,30.32-.57.52-.61,1.41-.09,1.98.28.3.65.45,1.03.45.34,0,.68-.12.94-.37ZM112.09,80.24v-18.34c0-14.75-7.37-28.45-19.7-36.64-.64-.43-1.51-.25-1.94.39-.43.64-.25,1.51.39,1.94,11.55,7.67,18.45,20.49,18.45,34.3v18.34c0,.77.63,1.4,1.4,1.4s1.4-.63,1.4-1.4ZM27.93,53.22c1.95-9.04,7-17.28,14.22-23.18.6-.49.69-1.37.2-1.97-.49-.6-1.37-.69-1.97-.2-7.71,6.3-13.1,15.09-15.18,24.75-.16.75.32,1.5,1.07,1.66.1.02.2.03.3.03.64,0,1.22-.45,1.37-1.1ZM32.31,101.18c.76-.16,1.24-.9,1.08-1.66-.52-2.43-.78-4.93-.78-7.43v-11.07c0-.77-.63-1.4-1.4-1.4s-1.4.63-1.4,1.4v11.07c0,2.7.28,5.39.84,8.01.14.66.72,1.11,1.37,1.11.1,0,.19-.01.29-.03ZM51.77,125.23c.37-.68.12-1.53-.56-1.9-6.56-3.57-11.94-9.24-15.15-15.97-.33-.7-1.17-.99-1.86-.66-.7.33-.99,1.17-.66,1.86,3.47,7.26,9.27,13.37,16.34,17.22.21.12.44.17.67.17.5,0,.98-.26,1.23-.73ZM69.55,129.04c0-.77-.63-1.4-1.4-1.4-3.19,0-6.36-.43-9.41-1.26-.75-.21-1.51.23-1.72.98-.2.75.23,1.51.98,1.72,3.29.91,6.71,1.37,10.15,1.37.77,0,1.4-.63,1.4-1.4ZM75.19,129.79c12.71-2.37,23.64-11.31,28.51-23.33.29-.72-.05-1.53-.77-1.82-.72-.29-1.53.05-1.82.77-4.52,11.15-14.65,19.44-26.43,21.63-.76.14-1.26.87-1.12,1.63.13.67.71,1.14,1.37,1.14.08,0,.17,0,.26-.02ZM105.96,98.53c.36-2.11.54-4.28.54-6.43v-30.19c0-4.43-.75-8.78-2.24-12.92-.26-.73-1.06-1.11-1.79-.84-.73.26-1.1,1.06-.84,1.79,1.38,3.84,2.08,7.87,2.08,11.98v30.19c0,2-.17,4.01-.5,5.97-.13.76.38,1.48,1.14,1.61.08.01.16.02.24.02.67,0,1.26-.48,1.38-1.16ZM41.85,38.02c2.61-3.38,4.9-5.83,8.44-7.16.72-.27,1.23-.91,1.07-1.66-.16-.75-.91-1.22-1.66-1.07-4.05.82-7.95,4.94-9.91,8.01-.42.65-.48,1.46.09,1.98.27.24.6.36.94.36.38,0,.78-.13,1.04-.46ZM101.54,47.05c.19,0,.37-.06.52-.16.28-.19.42-.53.46-.86.07-.72-.14-1.45-.34-2.12-1.58-5.43-8.2-12.54-13.9-14.92-.71-.3-1.5.31-1.66,1.07-.16.75.27,1.63.98,1.95,2.18.96,4.1,2.58,5.8,4.23,1.95,1.88,3.72,3.98,5.13,6.29.45.75.87,1.52,1.2,2.33.38.91.52,2.24,1.81,2.2ZM32.61,68.29v-6.39c0-5.65,1.29-11.05,3.84-16.06.35-.69.08-1.53-.61-1.88-.69-.35-1.53-.08-1.88.61-2.75,5.41-4.14,11.24-4.14,17.33v6.39c0,.77.63,1.4,1.4,1.4s1.4-.63,1.4-1.4ZM39.34,53.72c1.79-6.28,5.67-11.91,10.94-15.84.62-.46.75-1.34.28-1.96-.46-.62-1.34-.75-1.96-.28-5.76,4.3-10.01,10.45-11.96,17.32-.21.74.22,1.52.96,1.73.13.04.26.05.38.05.61,0,1.17-.4,1.34-1.02ZM38.2,87.97v-26.07c0-.77-.63-1.4-1.4-1.4s-1.4.63-1.4,1.4v26.07c0,.77.63,1.4,1.4,1.4s1.4-.63,1.4-1.4ZM43.94,112.04c.62-.46.74-1.34.28-1.96-3.43-4.55-5.48-9.95-5.92-15.62-.06-.77-.74-1.34-1.5-1.28-.77.06-1.35.73-1.28,1.5.49,6.2,2.73,12.1,6.48,17.08.27.36.69.56,1.12.56.29,0,.59-.09.84-.28ZM81.93,121.8c.7-.33,1-1.16.68-1.86-.33-.7-1.16-1-1.86-.68-3.96,1.84-8.2,2.78-12.6,2.78-7.37,0-14.47-2.72-19.97-7.65-.58-.51-1.46-.47-1.97.11-.52.57-.47,1.46.11,1.97,6.02,5.39,13.77,8.36,21.83,8.36,4.81,0,9.44-1.02,13.78-3.04ZM89.13,117.23c7.49-6.25,11.78-15.42,11.78-25.14v-6.11c0-.77-.63-1.4-1.4-1.4s-1.4.63-1.4,1.4v6.11c0,8.89-3.93,17.27-10.77,22.99-.59.49-.67,1.38-.18,1.97.28.33.67.5,1.07.5.32,0,.63-.11.9-.33ZM100.91,75.7v-13.79c0-8.99-3.77-17.69-10.35-23.87-.56-.53-1.45-.5-1.98.06-.53.56-.5,1.45.06,1.98,6.02,5.65,9.47,13.61,9.47,21.83v13.79c0,.77.63,1.4,1.4,1.4s1.4-.63,1.4-1.4ZM43.57,57.2c.19-.16.33-.38.41-.63,1.13-3.57,2.9-6.85,5.25-9.75.49-.6.4-1.48-.2-1.97-.6-.49-1.48-.4-1.97.2-2.57,3.17-4.51,6.76-5.75,10.66-.23.74.17,1.52.91,1.76.48.15.99.03,1.34-.28ZM44.16,101.56c.73-.24,1.13-1.04.88-1.77-.83-2.48-1.25-5.06-1.25-7.7v-30.19c0-.77-.63-1.4-1.4-1.4s-1.4.63-1.4,1.4v30.19c0,2.93.47,5.82,1.39,8.58.2.59.74.96,1.33.96.15,0,.3-.02.44-.07ZM85.32,113.12c.6-.49.69-1.37.2-1.97-.49-.6-1.37-.69-1.97-.2-4.33,3.54-9.8,5.5-15.4,5.5-8.16,0-15.74-4.07-20.28-10.88-.43-.64-1.3-.82-1.94-.39-.64.43-.82,1.3-.39,1.94,5.06,7.59,13.52,12.13,22.61,12.13,6.24,0,12.33-2.18,17.17-6.13ZM90.77,107.12c2.97-4.46,4.55-9.66,4.55-15.03v-30.19c0-9.95-4.58-14.48-7.18-18.73-.4-.66-1.26-.87-1.92-.46-.66.4-.87,1.26-.46,1.92,2.34,3.81,6.77,8.34,6.77,17.27v30.19c0,4.82-1.41,9.48-4.08,13.48-.43.64-.25,1.51.39,1.94.24.16.51.23.77.23.45,0,.9-.22,1.16-.62ZM55.57,99.56c.7-.33,1-1.16.67-1.86-.83-1.76-1.25-3.65-1.25-5.61v-17.86c0-.77-.63-1.4-1.4-1.4s-1.4.63-1.4,1.4v17.86c0,2.38.51,4.66,1.52,6.8.24.51.74.8,1.27.8.2,0,.4-.04.6-.13ZM81.05,101.5c.46-.62.32-1.5-.3-1.95-.62-.46-1.5-.32-1.95.3-2.48,3.39-6.46,5.42-10.64,5.42-3.79,0-7.4-1.64-9.91-4.5-.51-.58-1.39-.64-1.97-.13-.58.51-.64,1.39-.13,1.97,3.04,3.47,7.42,5.45,12.01,5.45,5.07,0,9.89-2.45,12.9-6.56ZM83.4,96.87c.48-1.54.73-3.15.73-4.77v-18.56c0-.77-.63-1.4-1.4-1.4s-1.4.63-1.4,1.4v18.56c0,1.34-.2,2.67-.6,3.94-.23.74.18,1.52.92,1.75.14.04.28.06.42.06.59,0,1.15-.38,1.33-.98ZM63.84,101.21c.48,0,.94-.24,1.2-.68.39-.66.18-1.52-.49-1.92-2.29-1.36-3.71-3.86-3.71-6.52v-4.07c0-.77-.63-1.4-1.4-1.4s-1.4.63-1.4,1.4v4.07c0,3.64,1.95,7.06,5.08,8.92.22.13.47.2.71.2ZM88.32,60.46c.77-.11,1.3-.82,1.19-1.58-.61-4.3-2.65-8.1-5.38-11.18,0,0-1.5-1.73-2.52-.61s.27,2.1.27,2.1c2.27,2.64,4.35,6.45,4.86,10.08.1.7.7,1.2,1.38,1.2.06,0,.13,0,.2-.01ZM49.39,80.24v-18.34c0-4.61,1.69-9.04,4.77-12.49.51-.58.46-1.46-.11-1.97-.58-.52-1.46-.46-1.97.11-3.53,3.96-5.48,9.05-5.48,14.35v18.34c0,.77.63,1.4,1.4,1.4s1.4-.63,1.4-1.4ZM65.89,112.18c.14-.76-.36-1.49-1.12-1.63-8.91-1.63-15.38-9.39-15.38-18.46v-6.88c0-.77-.63-1.4-1.4-1.4s-1.4.63-1.4,1.4v6.88c0,10.42,7.43,19.34,17.68,21.21.09.02.17.02.25.02.66,0,1.25-.47,1.37-1.15ZM69.91,113.58c11.11-.9,19.81-10.34,19.81-21.49,0-.77-.63-1.4-1.4-1.4s-1.4.63-1.4,1.4c0,9.71-7.57,17.92-17.24,18.7-.77.06-1.34.74-1.28,1.51.06.73.67,1.29,1.39,1.29.04,0,.08,0,.11,0ZM89.72,87.97v-23.07c0-.77-.63-1.4-1.4-1.4s-1.4.63-1.4,1.4v23.07c0,.77.63,1.4,1.4,1.4s1.4-.63,1.4-1.4Z"/>
  </g>
  <g>
    <path class="cls-1" d="M129.53,30.94h11.3v57.71h-11.3V30.94ZM155.66,60.04c-1.5-1.55-3.47-2.32-5.93-2.32-1.76,0-3.33.36-4.69,1.08-1.36.72-2.4,1.74-3.13,3.05-.72,1.31-1.08,2.82-1.08,4.53l-4.97-1.52c.64-3.85,1.76-7.12,3.37-9.82,1.6-2.7,3.62-4.74,6.05-6.13,2.43-1.39,5.14-2.08,8.14-2.08s5.85.64,8.26,1.92c2.4,1.28,4.26,3.11,5.57,5.49,1.31,2.38,1.96,5.12,1.96,8.22v26.21h-11.3v-22.44c0-2.56-.75-4.62-2.24-6.17Z"/>
    <path class="cls-1" d="M184.55,87.69c-2.32-1.28-4.12-3.1-5.37-5.45-1.26-2.35-1.88-5.05-1.88-8.1v-26.37h11.3v23c0,2.4.71,4.33,2.12,5.77,1.42,1.44,3.27,2.16,5.57,2.16,1.66,0,3.1-.33,4.33-1,1.23-.67,2.19-1.62,2.89-2.85.69-1.23,1.04-2.65,1.04-4.25l4.97,1.44c-.64,3.74-1.74,6.92-3.29,9.54-1.55,2.62-3.49,4.61-5.81,5.97-2.32,1.36-4.96,2.04-7.9,2.04s-5.65-.64-7.98-1.92ZM204.55,47.77h11.3v40.88h-11.3v-40.88Z"/>
    <path class="cls-1" d="M233.69,86.81c-3.34-1.87-5.97-4.43-7.9-7.7-1.92-3.26-2.89-6.89-2.89-10.9s.96-7.64,2.89-10.9c1.92-3.26,4.56-5.82,7.9-7.69,3.34-1.87,7.09-2.81,11.26-2.81s7.78.94,11.14,2.81c3.37,1.87,6.01,4.45,7.94,7.73,1.92,3.29,2.88,6.96,2.88,11.02,0,1.44-.08,2.65-.24,3.61h-33.91v-7.78h24.85l-2.32,4.01v-.64c0-2.14-.46-4.03-1.36-5.69-.91-1.66-2.15-2.94-3.73-3.85-1.58-.91-3.33-1.36-5.25-1.36s-3.77.48-5.37,1.44-2.85,2.32-3.73,4.09-1.32,3.77-1.32,6.01.45,4.32,1.36,6.05c.91,1.74,2.17,3.09,3.77,4.05,1.6.96,3.42,1.44,5.45,1.44s3.86-.41,5.49-1.24c1.63-.83,2.79-1.88,3.49-3.17h12.02c-1.44,4.33-4.08,7.79-7.9,10.38-3.82,2.59-8.24,3.89-13.27,3.89-4.17,0-7.92-.94-11.26-2.81Z"/>
    <path class="cls-1" d="M273.72,30.94h11.3v52.5l-5.05-5.13h11.78v10.34h-18.04V30.94Z"/>
    <path class="cls-1" d="M297.45,30.94h11.3v52.5l-5.05-5.13h11.78v10.34h-18.04V30.94Z"/>
    <path class="cls-1" d="M326.18,87.85c-2.16-1.17-3.89-2.78-5.17-4.81-1.28-2.03-1.92-4.3-1.92-6.81s.64-4.78,1.92-6.81c1.28-2.03,3.01-3.62,5.17-4.77,2.16-1.15,4.61-1.72,7.33-1.72h11.46v8.34h-8.58c-1.07,0-2.03.2-2.89.6-.86.4-1.54.98-2.04,1.72-.51.75-.76,1.55-.76,2.4,0,.96.25,1.8.76,2.53.51.72,1.19,1.3,2.04,1.72.85.43,1.82.64,2.89.64,1.44,0,2.71-.21,3.81-.64,1.09-.43,1.94-1.04,2.53-1.84.59-.8.88-1.68.88-2.64l4.49.32c0,2.57-.63,4.88-1.88,6.93-1.26,2.06-2.99,3.67-5.21,4.85-2.22,1.17-4.72,1.76-7.5,1.76s-5.17-.59-7.33-1.76ZM345.06,82.72l-1.44-2v-24.53l2,2h-23.57v-10.42h32.86v32.38l-1.52-1.84h6.17v10.34h-14.51v-5.93Z"/>
    <path class="cls-1" d="M391.27,86.81c-3.34-1.87-5.97-4.43-7.9-7.7-1.92-3.26-2.89-6.89-2.89-10.9s.96-7.64,2.89-10.9c1.92-3.26,4.56-5.82,7.9-7.69,3.34-1.87,7.09-2.81,11.26-2.81,3.63,0,6.97.74,10.02,2.2,3.05,1.47,5.57,3.5,7.58,6.09,2,2.59,3.33,5.54,3.97,8.86h-12.02c-.8-1.87-2.04-3.38-3.73-4.53-1.68-1.15-3.62-1.72-5.81-1.72-1.98,0-3.75.45-5.33,1.36-1.58.91-2.82,2.16-3.73,3.77-.91,1.6-1.36,3.39-1.36,5.37s.45,3.77,1.36,5.37c.91,1.6,2.15,2.86,3.73,3.77,1.58.91,3.35,1.36,5.33,1.36,2.19,0,4.13-.57,5.81-1.72,1.68-1.15,2.93-2.66,3.73-4.53h12.02c-.64,3.31-1.96,6.27-3.97,8.86-2,2.59-4.53,4.62-7.58,6.09-3.05,1.47-6.39,2.2-10.02,2.2-4.17,0-7.92-.94-11.26-2.81Z"/>
    <path class="cls-1" d="M430.91,47.77h11.3v40.88h-11.3v-40.88ZM440.57,55.95c1.52-2.83,3.42-5.01,5.69-6.53,2.27-1.52,4.77-2.28,7.5-2.28v11.62c-2.46,0-4.56.44-6.29,1.32-1.74.88-3.05,2.12-3.93,3.73-.88,1.6-1.32,3.47-1.32,5.61l-4.97-3.61c.69-3.74,1.8-7.03,3.33-9.86Z"/>
    <path class="cls-1" d="M467.1,86.81c-3.34-1.87-5.97-4.43-7.9-7.7-1.92-3.26-2.89-6.89-2.89-10.9s.96-7.64,2.89-10.9c1.92-3.26,4.56-5.82,7.9-7.69,3.34-1.87,7.09-2.81,11.26-2.81s7.78.94,11.14,2.81c3.37,1.87,6.01,4.45,7.94,7.73,1.92,3.29,2.88,6.96,2.88,11.02,0,1.44-.08,2.65-.24,3.61h-33.91v-7.78h24.85l-2.32,4.01v-.64c0-2.14-.46-4.03-1.36-5.69-.91-1.66-2.15-2.94-3.73-3.85-1.58-.91-3.33-1.36-5.25-1.36s-3.77.48-5.37,1.44-2.85,2.32-3.73,4.09-1.32,3.77-1.32,6.01.45,4.32,1.36,6.05c.91,1.74,2.17,3.09,3.77,4.05,1.6.96,3.42,1.44,5.45,1.44s3.86-.41,5.49-1.24c1.63-.83,2.79-1.88,3.49-3.17h12.02c-1.44,4.33-4.08,7.79-7.9,10.38-3.82,2.59-8.24,3.89-13.27,3.89-4.17,0-7.92-.94-11.26-2.81Z"/>
    <path class="cls-1" d="M511.1,87.85c-2.16-1.17-3.89-2.78-5.17-4.81-1.28-2.03-1.92-4.3-1.92-6.81s.64-4.78,1.92-6.81c1.28-2.03,3.01-3.62,5.17-4.77,2.16-1.15,4.61-1.72,7.33-1.72h11.46v8.34h-8.58c-1.07,0-2.03.2-2.89.6-.86.4-1.54.98-2.04,1.72-.51.75-.76,1.55-.76,2.4,0,.96.25,1.8.76,2.53.51.72,1.19,1.3,2.04,1.72.85.43,1.82.64,2.89.64,1.44,0,2.71-.21,3.81-.64,1.09-.43,1.94-1.04,2.53-1.84.59-.8.88-1.68.88-2.64l4.49.32c0,2.57-.63,4.88-1.88,6.93-1.26,2.06-2.99,3.67-5.21,4.85-2.22,1.17-4.72,1.76-7.5,1.76s-5.17-.59-7.33-1.76ZM529.98,82.72l-1.44-2v-24.53l2,2h-23.57v-10.42h32.86v32.38l-1.52-1.84h6.17v10.34h-14.51v-5.93Z"/>
    <path class="cls-1" d="M546.73,47.77h28.38v10.26h-28.38v-10.26ZM553.95,35.75h11.3v47.93l-5.05-5.37h14.91v10.34h-21.16v-52.9Z"/>
    <path class="cls-1" d="M582.96,40.32c-1.34-1.33-2-2.99-2-4.97s.67-3.63,2-4.97c1.34-1.33,3.02-2,5.05-2s3.7.67,5.01,2c1.31,1.34,1.96,2.99,1.96,4.97s-.65,3.63-1.96,4.97c-1.31,1.34-2.98,2-5.01,2s-3.71-.67-5.05-2ZM582.32,47.77h11.3v40.88h-11.3v-40.88Z"/>
    <path class="cls-1" d="M598.67,47.77h12.91l11.54,31.42h-3.53l11.62-31.42h12.58l-16.75,40.88h-11.62l-16.75-40.88Z"/>
    <path class="cls-1" d="M652.18,87.85c-2.16-1.17-3.89-2.78-5.17-4.81-1.28-2.03-1.92-4.3-1.92-6.81s.64-4.78,1.92-6.81c1.28-2.03,3.01-3.62,5.17-4.77,2.16-1.15,4.61-1.72,7.33-1.72h11.46v8.34h-8.58c-1.07,0-2.03.2-2.89.6-.86.4-1.54.98-2.04,1.72-.51.75-.76,1.55-.76,2.4,0,.96.25,1.8.76,2.53.51.72,1.19,1.3,2.04,1.72.85.43,1.82.64,2.89.64,1.44,0,2.71-.21,3.81-.64,1.09-.43,1.94-1.04,2.53-1.84.59-.8.88-1.68.88-2.64l4.49.32c0,2.57-.63,4.88-1.88,6.93-1.26,2.06-2.99,3.67-5.21,4.85-2.22,1.17-4.72,1.76-7.5,1.76s-5.17-.59-7.33-1.76ZM671.05,82.72l-1.44-2v-24.53l2,2h-23.57v-10.42h32.86v32.38l-1.52-1.84h6.17v10.34h-14.51v-5.93Z"/>
  </g>
  <g>
    <path class="cls-3" d="M132.13,126.42v-21.33h2.29v21.33h-2.29ZM133.65,107.17v-2.08h12.37v2.08h-12.37ZM133.65,116.5v-2.01h11.56v2.01h-11.56ZM133.65,126.42v-2.08h12.56v2.08h-12.56Z"/>
    <path class="cls-3" d="M149.24,126.42v-14.57h2.2v14.57h-2.2ZM159.28,126.42v-8.93c0-1.2-.36-2.15-1.08-2.85-.72-.7-1.63-1.05-2.73-1.05-.74,0-1.42.16-2.03.48-.61.32-1.1.77-1.46,1.35-.36.58-.54,1.26-.54,2.05l-.99-.4c0-1.12.25-2.09.74-2.91.5-.83,1.16-1.47,2-1.92.84-.45,1.78-.68,2.84-.68s1.96.23,2.77.68c.82.46,1.47,1.1,1.95,1.92.49.83.73,1.81.73,2.94v9.33h-2.2ZM169.3,126.42v-8.93c0-1.2-.36-2.15-1.08-2.85-.72-.7-1.63-1.05-2.73-1.05-.72,0-1.39.16-2,.48-.61.32-1.1.77-1.46,1.35-.36.58-.54,1.26-.54,2.05l-1.3-.4c.06-1.12.36-2.09.88-2.91.53-.83,1.22-1.47,2.08-1.92.86-.45,1.8-.68,2.84-.68s1.97.23,2.81.68c.84.46,1.5,1.1,1.98,1.92.49.83.73,1.81.73,2.94v9.33h-2.2Z"/>
    <path class="cls-3" d="M174.94,132.56v-20.71h2.2v3.72l-.43,3.56.43,3.57v9.86h-2.2ZM182.5,126.73c-1.12,0-2.12-.23-3.01-.68-.89-.45-1.62-1.08-2.19-1.88s-.91-1.72-1.04-2.77v-4.56c.12-1.07.48-2.01,1.05-2.8.58-.8,1.32-1.41,2.22-1.84.9-.43,1.89-.65,2.96-.65,1.34,0,2.55.34,3.63,1.01,1.07.67,1.93,1.58,2.56,2.73.63,1.15.95,2.44.95,3.89s-.31,2.71-.93,3.84c-.62,1.14-1.47,2.04-2.56,2.71-1.09.67-2.3,1.01-3.64,1.01ZM182.1,124.66c1.03,0,1.94-.23,2.73-.7.79-.47,1.41-1.12,1.86-1.95.45-.84.68-1.79.68-2.87s-.23-2.03-.68-2.87c-.46-.84-1.07-1.49-1.84-1.95-.77-.46-1.67-.7-2.68-.7s-1.91.23-2.68.7c-.78.46-1.38,1.12-1.81,1.95-.43.84-.65,1.79-.65,2.87s.22,2.03.65,2.87c.43.84,1.03,1.49,1.8,1.95.76.46,1.64.7,2.63.7Z"/>
    <path class="cls-3" d="M199.06,126.73c-1.43,0-2.71-.34-3.84-1.02-1.14-.68-2.04-1.6-2.71-2.76s-1.01-2.45-1.01-3.88.33-2.68,1.01-3.81c.67-1.14,1.58-2.04,2.71-2.71s2.42-1.01,3.84-1.01,2.68.33,3.83.99c1.15.66,2.06,1.57,2.73,2.71.67,1.15,1.01,2.42,1.01,3.83s-.34,2.74-1.01,3.89c-.67,1.15-1.58,2.06-2.73,2.74-1.15.68-2.42,1.02-3.83,1.02ZM199.06,124.63c1.01,0,1.92-.24,2.73-.71.81-.48,1.44-1.14,1.89-1.98.45-.85.68-1.8.68-2.85s-.23-1.96-.7-2.77-1.1-1.46-1.89-1.94c-.8-.48-1.7-.71-2.71-.71s-1.92.24-2.73.71c-.81.48-1.44,1.12-1.89,1.94-.45.82-.68,1.74-.68,2.77s.23,2.03.68,2.87c.46.84,1.08,1.49,1.89,1.97.81.48,1.71.71,2.73.71Z"/>
    <path class="cls-3" d="M213.01,126.42l-5.64-14.57h2.29l4.43,12.09-.81.03,4.37-12.12h1.3l4.4,12.12-.84-.03,4.43-12.09h2.29l-5.64,14.57h-1.3l-4.46-11.93h.93l-4.46,11.93h-1.3Z"/>
    <path class="cls-3" d="M237.65,126.73c-1.45,0-2.75-.33-3.91-.99-1.16-.66-2.07-1.57-2.74-2.73-.67-1.16-1.01-2.46-1.01-3.91s.33-2.71.98-3.86c.65-1.15,1.54-2.05,2.68-2.71,1.14-.66,2.41-.99,3.81-.99s2.53.3,3.55.9c1.02.6,1.83,1.43,2.42,2.5s.88,2.29.88,3.67c0,.17,0,.36-.03.57-.02.22-.06.47-.12.76h-12.62v-1.86h11.41l-.78.68c.02-1.05-.16-1.97-.54-2.74-.38-.77-.93-1.38-1.64-1.81-.71-.43-1.57-.65-2.56-.65-1.05,0-1.97.23-2.76.7s-1.4,1.11-1.84,1.92-.67,1.77-.67,2.87.23,2.1.7,2.95,1.12,1.51,1.95,1.98c.84.48,1.8.71,2.9.71.87,0,1.67-.16,2.42-.48s1.37-.8,1.89-1.44l1.43,1.43c-.68.83-1.53,1.46-2.54,1.89-1.01.43-2.1.65-3.25.65Z"/>
    <path class="cls-3" d="M246.98,126.42v-14.57h2.2v14.57h-2.2ZM249.18,117.93l-.9-.37c0-1.86.45-3.33,1.35-4.4.9-1.07,2.13-1.61,3.71-1.61.72,0,1.38.13,1.98.39.6.26,1.16.67,1.67,1.22l-1.46,1.52c-.33-.37-.71-.64-1.13-.81-.42-.17-.9-.25-1.44-.25-1.12,0-2.03.36-2.73,1.08s-1.05,1.8-1.05,3.22Z"/>
    <path class="cls-3" d="M271.75,117.62l-8.46-12.52h2.67l7.04,10.51h-1.12l7.07-10.51h2.6l-8.52,12.52h-1.27ZM271.29,126.42v-10.45h2.29v10.45h-2.29Z"/>
    <path class="cls-3" d="M290.82,126.73c-1.43,0-2.71-.34-3.84-1.02-1.14-.68-2.04-1.6-2.71-2.76s-1.01-2.45-1.01-3.88.33-2.68,1.01-3.81c.67-1.14,1.58-2.04,2.71-2.71s2.42-1.01,3.84-1.01,2.68.33,3.83.99c1.15.66,2.06,1.57,2.73,2.71.67,1.15,1.01,2.42,1.01,3.83s-.34,2.74-1.01,3.89c-.67,1.15-1.58,2.06-2.73,2.74-1.15.68-2.42,1.02-3.83,1.02ZM290.82,124.63c1.01,0,1.92-.24,2.73-.71.81-.48,1.44-1.14,1.89-1.98.45-.85.68-1.8.68-2.85s-.23-1.96-.7-2.77-1.1-1.46-1.89-1.94c-.8-.48-1.7-.71-2.71-.71s-1.92.24-2.73.71c-.81.48-1.44,1.12-1.89,1.94-.45.82-.68,1.74-.68,2.77s.23,2.03.68,2.87c.46.84,1.08,1.49,1.89,1.97.81.48,1.71.71,2.73.71Z"/>
    <path class="cls-3" d="M306.97,126.73c-1.18,0-2.24-.27-3.18-.82-.94-.55-1.67-1.3-2.19-2.26s-.77-2.07-.77-3.33v-8.46h2.2v8.37c0,.89.16,1.66.48,2.33.32.66.78,1.18,1.38,1.55.6.37,1.29.56,2.08.56,1.22,0,2.18-.4,2.88-1.21.7-.81,1.05-1.88,1.05-3.22v-8.37h2.2v8.46c0,1.26-.26,2.38-.78,3.35-.52.97-1.24,1.73-2.15,2.26-.92.54-1.99.81-3.21.81Z"/>
    <path class="cls-3" d="M316.51,126.42v-14.57h2.2v14.57h-2.2ZM318.72,117.93l-.9-.37c0-1.86.45-3.33,1.35-4.4.9-1.07,2.13-1.61,3.71-1.61.72,0,1.38.13,1.98.39.6.26,1.16.67,1.67,1.22l-1.46,1.52c-.33-.37-.71-.64-1.13-.81-.42-.17-.9-.25-1.44-.25-1.12,0-2.03.36-2.73,1.08s-1.05,1.8-1.05,3.22Z"/>
    <path class="cls-3" d="M335.3,126.42v-21.33h2.29v21.33h-2.29Z"/>
    <path class="cls-3" d="M341.87,126.42v-14.57h2.2v14.57h-2.2ZM352.51,126.42v-8.56c0-1.26-.38-2.29-1.15-3.08-.76-.79-1.77-1.19-3.01-1.19-.83,0-1.56.18-2.2.54-.64.36-1.15.86-1.52,1.5-.37.64-.56,1.38-.56,2.2l-.99-.56c0-1.1.26-2.08.78-2.95.52-.87,1.22-1.55,2.11-2.05s1.89-.74,3.01-.74,2.11.27,2.98.81c.87.54,1.54,1.26,2.03,2.17s.73,1.9.73,2.98v8.93h-2.2Z"/>
    <path class="cls-3" d="M358.12,126.42v-14.57h2.2v14.57h-2.2ZM368.75,126.42v-8.56c0-1.26-.38-2.29-1.15-3.08-.76-.79-1.77-1.19-3.01-1.19-.83,0-1.56.18-2.2.54-.64.36-1.15.86-1.52,1.5-.37.64-.56,1.38-.56,2.2l-.99-.56c0-1.1.26-2.08.78-2.95.52-.87,1.22-1.55,2.11-2.05s1.89-.74,3.01-.74,2.11.27,2.98.81c.87.54,1.54,1.26,2.03,2.17s.73,1.9.73,2.98v8.93h-2.2Z"/>
    <path class="cls-3" d="M381.09,126.73c-1.45,0-2.75-.33-3.91-.99-1.16-.66-2.07-1.57-2.74-2.73-.67-1.16-1.01-2.46-1.01-3.91s.33-2.71.98-3.86c.65-1.15,1.54-2.05,2.68-2.71,1.14-.66,2.41-.99,3.81-.99s2.53.3,3.55.9c1.02.6,1.83,1.43,2.42,2.5s.88,2.29.88,3.67c0,.17,0,.36-.03.57-.02.22-.06.47-.12.76h-12.62v-1.86h11.41l-.78.68c.02-1.05-.16-1.97-.54-2.74-.38-.77-.93-1.38-1.64-1.81-.71-.43-1.57-.65-2.56-.65-1.05,0-1.97.23-2.76.7s-1.4,1.11-1.84,1.92-.67,1.77-.67,2.87.23,2.1.7,2.95,1.12,1.51,1.95,1.98c.84.48,1.8.71,2.9.71.87,0,1.67-.16,2.42-.48s1.37-.8,1.89-1.44l1.43,1.43c-.68.83-1.53,1.46-2.54,1.89-1.01.43-2.1.65-3.25.65Z"/>
    <path class="cls-3" d="M390.42,126.42v-14.57h2.2v14.57h-2.2ZM392.62,117.93l-.9-.37c0-1.86.45-3.33,1.35-4.4.9-1.07,2.13-1.61,3.71-1.61.72,0,1.38.13,1.98.39.6.26,1.16.67,1.67,1.22l-1.46,1.52c-.33-.37-.71-.64-1.13-.81-.42-.17-.9-.25-1.44-.25-1.12,0-2.03.36-2.73,1.08s-1.05,1.8-1.05,3.22Z"/>
    <path class="cls-3" d="M406.78,126.42l8.71-21.33h1.74l8.65,21.33h-2.48l-7.5-18.82h.9l-7.59,18.82h-2.42ZM410.78,120.88v-1.98h11.16v1.98h-11.16Z"/>
    <path class="cls-3" d="M428.58,126.42v-14.57h2.2v14.57h-2.2ZM430.78,117.93l-.9-.37c0-1.86.45-3.33,1.35-4.4.9-1.07,2.13-1.61,3.71-1.61.72,0,1.38.13,1.98.39.6.26,1.16.67,1.67,1.22l-1.46,1.52c-.33-.37-.71-.64-1.13-.81-.42-.17-.9-.25-1.44-.25-1.12,0-2.03.36-2.73,1.08s-1.05,1.8-1.05,3.22Z"/>
    <path class="cls-3" d="M438.72,113.84v-1.98h9.52v1.98h-9.52ZM442.37,126.42v-20.71h2.2v20.71h-2.2Z"/>
    <path class="cls-3" d="M451.67,108.72c-.41,0-.76-.15-1.05-.46-.29-.31-.43-.67-.43-1.08s.14-.79.43-1.08.64-.43,1.05-.43c.45,0,.82.14,1.1.43.28.29.42.65.42,1.08s-.14.78-.42,1.08c-.28.31-.65.46-1.1.46ZM450.59,126.42v-14.57h2.2v14.57h-2.2Z"/>
    <path class="cls-3" d="M461.03,126.73c-.79,0-1.54-.11-2.26-.33-.72-.22-1.38-.52-1.97-.91s-1.11-.86-1.57-1.4l1.43-1.43c.58.7,1.23,1.22,1.97,1.57.73.34,1.55.51,2.46.51s1.7-.19,2.25-.56c.55-.37.82-.89.82-1.55,0-.62-.19-1.1-.57-1.44-.38-.34-.88-.62-1.5-.84-.62-.22-1.27-.42-1.95-.62-.68-.2-1.33-.44-1.94-.74s-1.11-.71-1.5-1.24c-.39-.53-.59-1.24-.59-2.12,0-.83.21-1.54.62-2.15.41-.61.99-1.08,1.74-1.43s1.64-.51,2.7-.51,2.09.2,2.98.59c.89.39,1.6.97,2.14,1.74l-1.43,1.43c-.41-.56-.95-.99-1.6-1.3-.65-.31-1.38-.46-2.19-.46-.93,0-1.64.18-2.12.54-.49.36-.73.83-.73,1.41s.2,1,.59,1.32.89.58,1.5.77c.61.2,1.26.39,1.94.59.68.2,1.33.46,1.95.78s1.12.75,1.5,1.3c.38.55.57,1.29.57,2.22,0,1.3-.47,2.34-1.41,3.12-.94.78-2.22,1.16-3.83,1.16Z"/>
    <path class="cls-3" d="M467.67,113.84v-1.98h9.52v1.98h-9.52ZM471.32,126.42v-20.71h2.2v20.71h-2.2Z"/>
    <path class="cls-3" d="M484,107.17v-2.08h17.33v2.08h-17.33ZM491.54,126.42v-20.74h2.29v20.74h-2.29Z"/>
    <path class="cls-3" d="M510.63,126.73c-1.43,0-2.71-.34-3.84-1.02-1.14-.68-2.04-1.6-2.71-2.76s-1.01-2.45-1.01-3.88.33-2.68,1.01-3.81c.67-1.14,1.58-2.04,2.71-2.71s2.42-1.01,3.84-1.01,2.68.33,3.83.99c1.15.66,2.06,1.57,2.73,2.71.67,1.15,1.01,2.42,1.01,3.83s-.34,2.74-1.01,3.89c-.67,1.15-1.58,2.06-2.73,2.74-1.15.68-2.42,1.02-3.83,1.02ZM510.63,124.63c1.01,0,1.92-.24,2.73-.71.81-.48,1.44-1.14,1.89-1.98.45-.85.68-1.8.68-2.85s-.23-1.96-.7-2.77-1.1-1.46-1.89-1.94c-.8-.48-1.7-.71-2.71-.71s-1.92.24-2.73.71c-.81.48-1.44,1.12-1.89,1.94-.45.82-.68,1.74-.68,2.77s.23,2.03.68,2.87c.46.84,1.08,1.49,1.89,1.97.81.48,1.71.71,2.73.71Z"/>
    <path class="cls-3" d="M527.22,126.73c-1.36,0-2.58-.33-3.66-.99-1.08-.66-1.92-1.57-2.54-2.71-.62-1.15-.93-2.43-.93-3.86s.31-2.74.93-3.89c.62-1.15,1.47-2.06,2.56-2.73s2.3-1.01,3.64-1.01c1.07,0,2.06.22,2.96.65.9.43,1.64,1.05,2.22,1.84.58.79.93,1.73,1.05,2.8v4.56c-.12,1.05-.47,1.98-1.04,2.77-.57.8-1.3,1.42-2.2,1.88-.9.46-1.9.68-2.99.68ZM527.59,124.66c1.01,0,1.9-.24,2.67-.71.76-.48,1.36-1.13,1.78-1.95.42-.83.64-1.78.64-2.85s-.22-2.06-.65-2.88c-.43-.83-1.03-1.47-1.8-1.94-.76-.46-1.65-.7-2.67-.7s-1.91.24-2.68.71c-.78.48-1.39,1.13-1.84,1.95-.46.83-.68,1.78-.68,2.85s.22,2.03.67,2.87,1.06,1.49,1.86,1.95c.79.46,1.7.7,2.71.7ZM534.75,126.42h-2.2v-3.91l.46-3.6-.46-3.5v-10.94h2.2v21.95Z"/>
    <path class="cls-3" d="M544.79,126.73c-1.36,0-2.59-.34-3.69-1.01-1.1-.67-1.96-1.58-2.6-2.71-.64-1.14-.96-2.42-.96-3.84s.32-2.74.96-3.89c.64-1.15,1.5-2.06,2.59-2.73s2.31-1.01,3.67-1.01c1.12,0,2.11.22,2.99.67.88.44,1.6,1.06,2.16,1.86.56.8.89,1.72.99,2.77v4.56c-.12,1.05-.46,1.98-1.01,2.79-.55.81-1.26,1.43-2.12,1.88s-1.86.67-2.98.67ZM545.13,124.66c1.53,0,2.75-.51,3.66-1.52.91-1.01,1.36-2.34,1.36-4,0-1.09-.21-2.06-.62-2.88-.41-.83-1-1.47-1.77-1.94s-1.65-.7-2.67-.7-1.92.24-2.71.71c-.8.48-1.43,1.13-1.89,1.95-.46.83-.7,1.78-.7,2.85s.23,2.03.7,2.85c.46.83,1.1,1.48,1.91,1.95.81.48,1.71.71,2.73.71ZM550.03,126.42v-3.91l.43-3.6-.43-3.5v-3.56h2.2v14.57h-2.2Z"/>
    <path class="cls-3" d="M560.85,126.52l-6.42-14.66h2.42l5.15,12.21h-.9l5.39-12.21h2.45l-6.85,14.66h-1.24ZM556.85,132.56l4.03-8.28,1.21,2.23-2.82,6.05h-2.42Z"/>
  </g>
</svg>