<?xml version="1.0" encoding="UTF-8"?>
<svg id="Capa_1" data-name="Capa 1" xmlns="http://www.w3.org/2000/svg" viewBox="0 0 84.93 82.25">
  <defs>
    <style>
      .cls-1 {
        fill: #532ba5;
      }

      .cls-2 {
        fill: #fff;
      }
    </style>
  </defs>
  <path class="cls-1" d="M42.46,82.25c23.45,0,42.47-18.41,42.47-41.13S65.92,0,42.46,0,0,18.41,0,41.13s19.01,41.13,42.46,41.13Z"/>
  <path class="cls-2" d="M53.77,27.37c-1.42,0-2.58,1.12-2.58,2.5s1.16,2.5,2.58,2.5,2.58-1.12,2.58-2.5-1.16-2.5-2.58-2.5Z"/>
  <path class="cls-2" d="M42.24,30.58c-6.01,0-10.89,4.73-10.89,10.54s4.88,10.54,10.89,10.54,10.89-4.73,10.89-10.54-4.88-10.54-10.89-10.54ZM42.24,47.87c-3.85,0-6.97-3.04-6.97-6.75s3.14-6.75,6.97-6.75,6.97,3.04,6.97,6.75-3.14,6.75-6.97,6.75Z"/>
  <path class="cls-2" d="M50.88,62.53h-17.64c-7.32,0-13.28-5.76-13.28-12.86v-17.09c0-7.09,5.95-12.86,13.28-12.86h17.64c7.32,0,13.28,5.76,13.28,12.86v17.09c0,7.09-5.95,12.86-13.28,12.86ZM33.24,23.75c-5.03,0-9.12,3.97-9.12,8.84v17.09c0,4.87,4.1,8.84,9.12,8.84h17.64c5.02,0,9.12-3.97,9.12-8.84v-17.09c0-4.87-4.1-8.84-9.12-8.84h-17.64Z"/>
</svg>