<?xml version="1.0" encoding="UTF-8"?>
<svg id="Capa_1" data-name="Capa 1" xmlns="http://www.w3.org/2000/svg" viewBox="0 0 84.93 82.25">
  <defs>
    <style>
      .cls-1 {
        fill: #532ba5;
      }

      .cls-2 {
        fill: #fff;
      }
    </style>
  </defs>
  <path class="cls-1" d="M42.46,82.25c23.45,0,42.46-18.41,42.46-41.13S65.92,0,42.46,0,0,18.41,0,41.13s19.01,41.13,42.46,41.13Z"/>
  <path class="cls-2" d="M62.45,35.71c0-5.04-4.04-9.1-9.04-9.1h-23.13c-5,0-9.04,4.07-9.04,9.1v10.82c0,5.04,4.04,9.1,9.04,9.1h23.13c5,0,9.04-4.07,9.04-9.1v-10.82ZM48.85,41.93l-10.36,5.16c-.41.22-1.78-.07-1.78-.54v-10.61c0-.47,1.39-.77,1.8-.54l9.94,5.43c.41.23.85.84.43,1.08l-.02.02Z"/>
</svg>