<?xml version="1.0" encoding="UTF-8"?>
<svg id="Capa_1" data-name="Capa 1" xmlns="http://www.w3.org/2000/svg" viewBox="0 0 84.93 82.25">
  <defs>
    <style>
      .cls-1 {
        fill: #532ba5;
      }

      .cls-2 {
        fill: #fff;
      }
    </style>
  </defs>
  <path class="cls-1" d="M42.46,82.25c23.45,0,42.46-18.41,42.46-41.13S65.92,0,42.46,0,0,18.41,0,41.13s19.01,41.13,42.46,41.13Z"/>
  <path class="cls-2" d="M61.71,25.01c-3.53-1.54-7.24-2.62-11.08-3.24-.48.81-1.03,1.89-1.41,2.75-4.07-.57-8.21-.57-12.27,0-.43-.95-.93-1.86-1.46-2.75-3.84.61-7.56,1.7-11.08,3.26-6.99,9.86-8.88,19.48-7.94,28.97,4.1,2.89,8.71,5.08,13.59,6.48,1.11-1.42,2.07-2.9,2.91-4.47-1.59-.56-3.12-1.25-4.58-2.08.37-.27.75-.54,1.11-.83,8.6,3.85,18.57,3.85,27.19,0,.36.29.75.56,1.12.83-1.46.83-3,1.52-4.58,2.08.84,1.55,1.82,3.06,2.91,4.46,4.89-1.4,9.49-3.6,13.59-6.48,1.11-10.99-1.91-20.53-7.99-28.98l-.02.02ZM34.14,48.17c-2.66,0-4.82-2.3-4.82-5.11s2.13-5.13,4.82-5.13,4.85,2.3,4.83,5.11c-.02,2.82-2.12,5.13-4.83,5.13ZM51.98,48.17c-2.66,0-4.82-2.3-4.82-5.11s2.12-5.13,4.82-5.13,4.85,2.3,4.82,5.11c-.04,2.82-2.13,5.13-4.82,5.13Z"/>
</svg>